
<global>
amp_veltrack=0
ampeg_attack=0.01
ampeg_release=0.35
</global>

<group>
group_label=PP
xf_cccurve=gain
xfin_hicc1=42
xfout_hicc1=85
xfout_locc1=42

<region>
end=374063
hikey=G#2
hivel=127
lokey=G2
loop_end=282218
loop_mode=loop_continuous
loop_start=100563
loop_xfade=45413
lovel=0
offset=8264
pitch_keycenter=G#2
sample=Basses_sul_tasto_PP_G#3.opus
</region>

<region>
end=374399
hikey=G#1
hivel=127
lokey=G1
loop_end=282471
loop_mode=loop_continuous
loop_start=100653
loop_xfade=45454
lovel=0
offset=20062
pitch_keycenter=G#1
sample=Basses_sul_tasto_PP_G#2.opus
</region>

<region>
end=374399
hikey=C4
hivel=127
lokey=F3
loop_end=282471
loop_mode=loop_continuous
loop_start=100653
loop_xfade=45454
lovel=0
offset=18660
pitch_keycenter=F#3
sample=Basses_sul_tasto_PP_F#4.opus
</region>

<region>
end=374399
hikey=F#2
hivel=127
lokey=F2
loop_end=282471
loop_mode=loop_continuous
loop_start=100653
loop_xfade=45454
lovel=0
offset=15433
pitch_keycenter=F#2
sample=Basses_sul_tasto_PP_F#3.opus
</region>

<region>
end=374400
hikey=F#1
hivel=127
lokey=F1
loop_end=282472
loop_mode=loop_continuous
loop_start=100653
loop_xfade=45454
lovel=0
offset=15829
pitch_keycenter=F#1
sample=Basses_sul_tasto_PP_F#2.opus
</region>

<region>
end=374399
hikey=E3
hivel=127
lokey=D#3
loop_end=282471
loop_mode=loop_continuous
loop_start=100653
loop_xfade=45454
lovel=0
offset=26483
pitch_keycenter=E3
sample=Basses_sul_tasto_PP_E4.opus
</region>

<region>
end=372805
hikey=E2
hivel=127
lokey=D#2
loop_end=281269
loop_mode=loop_continuous
loop_start=100224
loop_xfade=45261
lovel=0
offset=23593
pitch_keycenter=E2
sample=Basses_sul_tasto_PP_E3.opus
</region>

<region>
end=374400
hikey=E1
hivel=127
lokey=D#1
loop_end=282472
loop_mode=loop_continuous
loop_start=100653
loop_xfade=45454
lovel=0
offset=15972
pitch_keycenter=E1
sample=Basses_sul_tasto_PP_E2.opus
</region>

<region>
end=374399
hikey=D3
hivel=127
lokey=C#3
loop_end=282471
loop_mode=loop_continuous
loop_start=100653
loop_xfade=45454
lovel=0
offset=7474
pitch_keycenter=D3
sample=Basses_sul_tasto_PP_D4.opus
</region>

<region>
end=370857
hikey=D2
hivel=127
lokey=C#2
loop_end=279799
loop_mode=loop_continuous
loop_start=99701
loop_xfade=45024
lovel=0
offset=15521
pitch_keycenter=D2
sample=Basses_sul_tasto_PP_D3.opus
</region>

<region>
end=373769
hikey=D1
hivel=127
lokey=C#1
loop_end=281996
loop_mode=loop_continuous
loop_start=100483
loop_xfade=45378
lovel=0
offset=14238
pitch_keycenter=D1
sample=Basses_sul_tasto_PP_D2.opus
</region>

<region>
end=372653
hikey=C3
hivel=127
lokey=B2
loop_end=281154
loop_mode=loop_continuous
loop_start=100183
loop_xfade=45242
lovel=0
offset=19040
pitch_keycenter=C3
sample=Basses_sul_tasto_PP_C4.opus
</region>

<region>
end=374399
hikey=C2
hivel=127
lokey=B1
loop_end=282471
loop_mode=loop_continuous
loop_start=100653
loop_xfade=45454
lovel=0
offset=22056
pitch_keycenter=C2
sample=Basses_sul_tasto_PP_C3.opus
</region>

<region>
end=368442
hivel=127
key=C1
loop_end=277977
loop_mode=loop_continuous
loop_start=99051
loop_xfade=44731
lovel=0
offset=8682
sample=Basses_sul_tasto_PP_C2.opus
</region>

<region>
end=374399
hikey=A#2
hivel=127
lokey=A2
loop_end=282471
loop_mode=loop_continuous
loop_start=100653
loop_xfade=45454
lovel=0
offset=11981
pitch_keycenter=A#2
sample=Basses_sul_tasto_PP_A#3.opus
</region>

<region>
end=368612
hikey=A#1
hivel=127
lokey=A1
loop_end=278105
loop_mode=loop_continuous
loop_start=99097
loop_xfade=44752
lovel=0
offset=12495
pitch_keycenter=A#1
sample=Basses_sul_tasto_PP_A#2.opus
</region>
</group>

<group>
group_label=MF
xf_cccurve=gain
xfin_hicc1=85
xfin_locc1=42
xfout_hicc1=127
xfout_locc1=85

<region>
end=315536
hikey=G#2
hivel=127
lokey=G2
loop_end=238061
loop_mode=loop_continuous
loop_start=84828
loop_xfade=38308
lovel=0
offset=5759
pitch_keycenter=G#2
sample=Basses_sul_tasto_MF_G#3.opus
</region>

<region>
end=308535
hikey=G#1
hivel=127
lokey=G1
loop_end=232779
loop_mode=loop_continuous
loop_start=82946
loop_xfade=37458
lovel=0
offset=3221
pitch_keycenter=G#1
sample=Basses_sul_tasto_MF_G#2.opus
</region>

<region>
end=352726
hikey=C4
hivel=127
lokey=F3
loop_end=266120
loop_mode=loop_continuous
loop_start=94826
loop_xfade=42823
lovel=0
offset=1393
pitch_keycenter=F#3
sample=Basses_sul_tasto_MF_F#4.opus
</region>

<region>
end=367783
hikey=F#2
hivel=127
lokey=F2
loop_end=277480
loop_mode=loop_continuous
loop_start=98874
loop_xfade=44651
lovel=0
offset=9509
pitch_keycenter=F#2
sample=Basses_sul_tasto_MF_F#3.opus
</region>

<region>
end=315213
hikey=F#1
hivel=127
lokey=F1
loop_end=237817
loop_mode=loop_continuous
loop_start=84741
loop_xfade=38269
lovel=0
offset=1619
pitch_keycenter=F#1
sample=Basses_sul_tasto_MF_F#2.opus
</region>

<region>
end=359730
hikey=E3
hivel=127
lokey=D#3
loop_end=271404
loop_mode=loop_continuous
loop_start=96709
loop_xfade=43673
lovel=0
offset=2877
pitch_keycenter=E3
sample=Basses_sul_tasto_MF_E4.opus
</region>

<region>
end=337988
hikey=E2
hivel=127
lokey=D#2
loop_end=255000
loop_mode=loop_continuous
loop_start=90864
loop_xfade=41034
lovel=0
offset=2265
pitch_keycenter=E2
sample=Basses_sul_tasto_MF_E3.opus
</region>

<region>
end=313332
hikey=E1
hivel=127
lokey=D#1
loop_end=236398
loop_mode=loop_continuous
loop_start=84236
loop_xfade=38040
lovel=0
offset=3135
pitch_keycenter=E1
sample=Basses_sul_tasto_MF_E2.opus
</region>

<region>
end=332600
hikey=D3
hivel=127
lokey=C#3
loop_end=250935
loop_mode=loop_continuous
loop_start=89416
loop_xfade=40379
lovel=0
offset=4763
pitch_keycenter=D3
sample=Basses_sul_tasto_MF_D4.opus
</region>

<region>
end=325501
hikey=D2
hivel=127
lokey=C#2
loop_end=245579
loop_mode=loop_continuous
loop_start=87507
loop_xfade=39518
lovel=0
offset=7994
pitch_keycenter=D2
sample=Basses_sul_tasto_MF_D3.opus
</region>

<region>
end=315166
hikey=D1
hivel=127
lokey=C#1
loop_end=237782
loop_mode=loop_continuous
loop_start=84729
loop_xfade=38263
lovel=0
offset=3239
pitch_keycenter=D1
sample=Basses_sul_tasto_MF_D2.opus
</region>

<region>
end=354377
hikey=C3
hivel=127
lokey=B2
loop_end=267365
loop_mode=loop_continuous
loop_start=95270
loop_xfade=43023
lovel=0
offset=6130
pitch_keycenter=C3
sample=Basses_sul_tasto_MF_C4.opus
</region>

<region>
end=318966
hikey=C2
hivel=127
lokey=B1
loop_end=240649
loop_mode=loop_continuous
loop_start=85750
loop_xfade=38724
lovel=0
offset=3935
pitch_keycenter=C2
sample=Basses_sul_tasto_MF_C3.opus
</region>

<region>
end=309940
hivel=127
key=C1
loop_end=233839
loop_mode=loop_continuous
loop_start=83324
loop_xfade=37628
lovel=0
offset=1692
sample=Basses_sul_tasto_MF_C2.opus
</region>

<region>
end=313527
hikey=A#2
hivel=127
lokey=A2
loop_end=236545
loop_mode=loop_continuous
loop_start=84288
loop_xfade=38064
lovel=0
offset=3221
pitch_keycenter=A#2
sample=Basses_sul_tasto_MF_A#3.opus
</region>

<region>
end=324188
hikey=A#1
hivel=127
lokey=A1
loop_end=244589
loop_mode=loop_continuous
loop_start=87154
loop_xfade=39358
lovel=0
offset=2059
pitch_keycenter=A#1
sample=Basses_sul_tasto_MF_A#2.opus
</region>
</group>

<group>
group_label=FF
xf_cccurve=gain
xfin_hicc1=127
xfin_locc1=85
xfout_hicc1=127
xfout_locc1=127

<region>
end=308401
hikey=G#2
hivel=127
lokey=G2
loop_end=232678
loop_mode=loop_continuous
loop_start=82910
loop_xfade=37442
lovel=0
offset=2719
pitch_keycenter=G#2
sample=Basses_sul_tasto_FF_G#3.opus
</region>

<region>
end=306464
hikey=G#1
hivel=127
lokey=G1
loop_end=231217
loop_mode=loop_continuous
loop_start=82389
loop_xfade=37207
lovel=0
offset=3320
pitch_keycenter=G#1
sample=Basses_sul_tasto_FF_G#2.opus
</region>

<region>
end=344304
hikey=C4
hivel=127
lokey=F3
loop_end=259766
loop_mode=loop_continuous
loop_start=92562
loop_xfade=41801
lovel=0
offset=2634
pitch_keycenter=F#3
sample=Basses_sul_tasto_FF_F#4.opus
</region>

<region>
end=330454
hikey=F#2
hivel=127
lokey=F2
loop_end=249316
loop_mode=loop_continuous
loop_start=88839
loop_xfade=40119
lovel=0
offset=1147
pitch_keycenter=F#2
sample=Basses_sul_tasto_FF_F#3.opus
</region>

<region>
end=318406
hikey=F#1
hivel=127
lokey=F1
loop_end=240226
loop_mode=loop_continuous
loop_start=85600
loop_xfade=38656
lovel=0
offset=2828
pitch_keycenter=F#1
sample=Basses_sul_tasto_FF_F#2.opus
</region>

<region>
end=337152
hikey=E3
hivel=127
lokey=D#3
loop_end=254370
loop_mode=loop_continuous
loop_start=90639
loop_xfade=40932
lovel=0
offset=8349
pitch_keycenter=E3
sample=Basses_sul_tasto_FF_E4.opus
</region>

<region>
end=326584
hikey=E2
hivel=127
lokey=D#2
loop_end=246396
loop_mode=loop_continuous
loop_start=87798
loop_xfade=39649
lovel=0
offset=2458
pitch_keycenter=E2
sample=Basses_sul_tasto_FF_E3.opus
</region>

<region>
end=315972
hikey=E1
hivel=127
lokey=D#1
loop_end=238390
loop_mode=loop_continuous
loop_start=84945
loop_xfade=38361
lovel=0
offset=1925
pitch_keycenter=E1
sample=Basses_sul_tasto_FF_E2.opus
</region>

<region>
end=332268
hikey=D3
hivel=127
lokey=C#3
loop_end=250685
loop_mode=loop_continuous
loop_start=89326
loop_xfade=40339
lovel=0
offset=2501
pitch_keycenter=D3
sample=Basses_sul_tasto_FF_D4.opus
</region>

<region>
end=316733
hikey=D2
hivel=127
lokey=C#2
loop_end=238964
loop_mode=loop_continuous
loop_start=85150
loop_xfade=38453
lovel=0
offset=4145
pitch_keycenter=D2
sample=Basses_sul_tasto_FF_D3.opus
</region>

<region>
end=319149
hikey=D1
hivel=127
lokey=C#1
loop_end=240787
loop_mode=loop_continuous
loop_start=85799
loop_xfade=38747
lovel=0
offset=3608
pitch_keycenter=D1
sample=Basses_sul_tasto_FF_D2.opus
</region>

<region>
end=315451
hikey=C3
hivel=127
lokey=B2
loop_end=237997
loop_mode=loop_continuous
loop_start=84805
loop_xfade=38298
lovel=0
offset=4339
pitch_keycenter=C3
sample=Basses_sul_tasto_FF_C4.opus
</region>

<region>
end=313600
hikey=C2
hivel=127
lokey=B1
loop_end=236600
loop_mode=loop_continuous
loop_start=84308
loop_xfade=38073
lovel=0
offset=3243
pitch_keycenter=C2
sample=Basses_sul_tasto_FF_C3.opus
</region>

<region>
end=319875
hivel=127
key=C1
loop_end=241335
loop_mode=loop_continuous
loop_start=85995
loop_xfade=38835
lovel=0
offset=4072
sample=Basses_sul_tasto_FF_C2.opus
</region>

<region>
end=315671
hikey=A#2
hivel=127
lokey=A2
loop_end=238163
loop_mode=loop_continuous
loop_start=84864
loop_xfade=38324
lovel=0
offset=5984
pitch_keycenter=A#2
sample=Basses_sul_tasto_FF_A#3.opus
</region>

<region>
end=314601
hikey=A#1
hivel=127
lokey=A1
loop_end=237356
loop_mode=loop_continuous
loop_start=84577
loop_xfade=38194
lovel=0
offset=4488
pitch_keycenter=A#1
sample=Basses_sul_tasto_FF_A#2.opus
</region>
</group>